<svg xmlns="http://www.w3.org/2000/svg" version="1.1" xmlns:xlink="http://www.w3.org/1999/xlink" xmlns:svgjs="http://svgjs.com/svgjs" width="512" height="512" x="0" y="0" viewBox="0 0 473.684 473.684" style="enable-background:new 0 0 512 512" xml:space="preserve" class=""><g>
  <path xmlns="http://www.w3.org/2000/svg" style="" d="M315.802,13.535l-27.639,76.632c25.512,84.193,25.512,209.156,0,293.353l27.639,76.624  c91.975-32.523,157.882-120.195,157.882-223.31C473.684,133.735,407.777,46.059,315.802,13.535z" fill="#e61e25" data-original="#e61e25"></path>
  <g xmlns="http://www.w3.org/2000/svg">
    <path style="" d="M315.802,90.167V13.535C291.102,4.8,264.536,0.002,236.84,0.002   C273.361,0.002,222.723,123.775,315.802,90.167z" fill="#e4e4e4" data-original="#e4e4e4"></path>
    <path style="" d="M236.84,473.682c27.695,0,54.262-4.798,78.962-13.534v-76.624   C223.658,374.328,236.84,473.682,236.84,473.682z" fill="#e4e4e4" data-original="#e4e4e4"></path>
  </g>
  <path xmlns="http://www.w3.org/2000/svg" style="" d="M0,236.837C0,340.297,66.355,428.2,158.806,460.461V13.229C66.355,45.49,0,133.393,0,236.837z" fill="#3757a6" data-original="#3757a6"></path>
  <path xmlns="http://www.w3.org/2000/svg" style="" d="M315.802,90.167V383.52C341.317,299.323,341.317,174.359,315.802,90.167z" fill="#ef4f4e" data-original="#ef4f4e"></path>
  <path xmlns="http://www.w3.org/2000/svg" style="" d="M315.802,383.523V90.167C299.677,36.938,273.361,0.002,236.84,0.002  c-27.351,0-53.592,4.697-78.034,13.227v447.234c24.442,8.53,50.683,13.22,78.034,13.22  C273.361,473.682,299.677,436.746,315.802,383.523z" fill="#f3f4f5" data-original="#f3f4f5"></path>
  <g xmlns="http://www.w3.org/2000/svg">
  </g>
  <g xmlns="http://www.w3.org/2000/svg">
  </g>
  <g xmlns="http://www.w3.org/2000/svg">
  </g>
  <g xmlns="http://www.w3.org/2000/svg">
  </g>
  <g xmlns="http://www.w3.org/2000/svg">
  </g>
  <g xmlns="http://www.w3.org/2000/svg">
  </g>
  <g xmlns="http://www.w3.org/2000/svg">
  </g>
  <g xmlns="http://www.w3.org/2000/svg">
  </g>
  <g xmlns="http://www.w3.org/2000/svg">
  </g>
  <g xmlns="http://www.w3.org/2000/svg">
  </g>
  <g xmlns="http://www.w3.org/2000/svg">
  </g>
  <g xmlns="http://www.w3.org/2000/svg">
  </g>
  <g xmlns="http://www.w3.org/2000/svg">
  </g>
  <g xmlns="http://www.w3.org/2000/svg">
  </g>
  <g xmlns="http://www.w3.org/2000/svg">
  </g>
  </g></svg>