<svg xmlns="http://www.w3.org/2000/svg" version="1.1" xmlns:xlink="http://www.w3.org/1999/xlink" xmlns:svgjs="http://svgjs.com/svgjs" width="512" height="512" x="0" y="0" viewBox="0 0 512 512" style="enable-background:new 0 0 512 512" xml:space="preserve" class=""><g><g xmlns="http://www.w3.org/2000/svg"><path d="m12.671 372.484c2.429 22.159 20.378 39.472 42.62 41.028 1.84.13 3.668.259 5.496.377 13.562.92 24.105 12.182 24.105 25.78v51.395c0 17.289 19.789 27.101 33.54 16.628 25.096-19.117 58.482-47.55 78.967-77.033 4.847-6.982 12.854-11.05 21.357-11.003 63.07.318 126.14-1.71 189.209-6.144 17.583-1.227 32.514-12.277 39.165-27.82 1.769-4.08 2.948-8.491 3.455-13.102 9.34-85.324 9.34-170.659 0-255.994-2.429-22.136-20.39-39.366-42.597-40.922-93.956-6.592-187.9-7.913-281.845-3.963-23.61.979-47.231 2.3-70.841 3.963-22.218 1.556-40.191 18.786-42.62 40.922-9.339 85.3-9.339 170.588-.011 255.888z" fill="#f4dd45" data-original="#f4dd45" class=""></path><path d="m53.145 116.593c-9.339 85.303-9.339 170.587 0 255.89 2.435 22.158 20.37 39.466 42.623 41.026 1.826.133 3.671.247 5.497.38 13.561.913 24.098 12.173 24.098 25.772v51.391c0 3.518.818 6.714 2.244 9.51-3.157 2.491-6.219 4.869-9.186 7.132-13.751 10.461-33.532.647-33.532-16.642v-51.391c0-13.599-10.556-24.859-24.117-25.772-1.826-.133-3.652-.247-5.497-.38-22.234-1.56-40.189-18.868-42.604-41.026-9.338-85.303-9.338-170.587 0-255.89 2.435-22.139 20.408-39.371 42.623-40.93 23.604-1.654 47.226-2.986 70.848-3.956 42.072-1.769 84.162-2.492 126.234-2.13-28.587.209-57.173.932-85.76 2.13-23.603.97-47.226 2.301-70.848 3.956-22.215 1.56-40.188 18.792-42.623 40.93z" fill="#eab14d" data-original="#eab14d"></path><g fill="#404a4a"><path d="m248.855 165.805h-179.618c-4.268 0-7.726-3.459-7.726-7.726s3.459-7.726 7.726-7.726h179.619c4.268 0 7.726 3.459 7.726 7.726s-3.459 7.726-7.727 7.726z" fill="#404a4a" data-original="#404a4a" class=""></path><path d="m248.855 204.605h-179.618c-4.268 0-7.726-3.459-7.726-7.726s3.459-7.726 7.726-7.726h179.619c4.268 0 7.726 3.459 7.726 7.726s-3.459 7.726-7.727 7.726z" fill="#404a4a" data-original="#404a4a" class=""></path><path d="m248.855 243.405h-179.618c-4.268 0-7.726-3.459-7.726-7.726s3.459-7.726 7.726-7.726h179.619c4.268 0 7.726 3.459 7.726 7.726s-3.459 7.726-7.727 7.726z" fill="#404a4a" data-original="#404a4a" class=""></path><path d="m248.855 282.205h-179.618c-4.268 0-7.726-3.459-7.726-7.726s3.459-7.726 7.726-7.726h179.619c4.268 0 7.726 3.459 7.726 7.726s-3.459 7.726-7.727 7.726z" fill="#404a4a" data-original="#404a4a" class=""></path><path d="m139.662 321.005h-70.425c-4.268 0-7.726-3.459-7.726-7.726s3.459-7.726 7.726-7.726h70.426c4.268 0 7.726 3.459 7.726 7.726s-3.459 7.726-7.727 7.726z" fill="#404a4a" data-original="#404a4a" class=""></path></g><g><path d="m281.67 361.603c-1.379 0-2.775-.369-4.035-1.143-3.637-2.233-4.775-6.99-2.542-10.627l5.455-8.884c2.233-3.637 6.993-4.775 10.627-2.542 3.637 2.233 4.775 6.99 2.542 10.627l-5.455 8.884c-1.459 2.376-3.995 3.685-6.592 3.685z" fill="#404a4a" data-original="#404a4a" class=""></path><path d="m408.437 266.718c-3.892 0-7.24-2.932-7.672-6.889-1.594-14.611 14.336-39.295 40.459-78.358 21.409-32.016 45.676-68.304 49.07-89.36 2.933-18.215-4.856-31.004-23.15-38.011-3.985-1.526-5.978-5.994-4.452-9.979 1.525-3.984 5.991-5.979 9.979-4.452 24.972 9.564 36.956 29.574 32.878 54.898-3.931 24.387-28.104 60.535-51.481 95.493-17.379 25.987-39.007 58.33-37.942 68.092.463 4.242-2.602 8.056-6.843 8.519-.284.032-.566.047-.846.047z" fill="#b4d0d5" data-original="#b4d0d5"></path><path d="m471.074 59.413 14.674-27.167c3.709-6.866 1.145-15.454-5.722-19.163l-21.07-11.381c-6.876-3.714-15.454-1.145-19.163 5.722l-14.674 27.166" fill="#dfeaef" data-original="#dfeaef"></path><path d="m476.232 11.034c-6.876-3.714-15.454-1.145-19.163 5.722l-14.674 27.167-17.277-9.332 14.674-27.167c3.709-6.866 12.287-9.436 19.163-5.722z" fill="#b4d0d5" data-original="#b4d0d5"></path><path d="m471.856 72.267c-8.808 34.676-27.032 79.829-52.467 126.919-10.024 18.543-20.398 35.994-30.772 51.942-2.885 4.42-5.759 8.715-8.633 12.898-38.601 56.279-75.811 90.172-92.85 80.962-17.039-9.199-9.097-58.885 16.802-122.035 1.916-4.687 3.946-9.457 6.068-14.289 7.644-17.42 16.545-35.665 26.558-54.218 25.435-47.09 53.209-87.092 77.367-113.464 6.572-7.17 17.183-8.921 25.734-4.306l21.685 11.713c8.561 4.624 12.908 14.462 10.508 23.878z" fill="#6bbef6" data-original="#6bbef6"></path><path d="m287.136 344.991c-22.872-12.354-.738-97.667 49.428-190.541 25.437-47.092 53.201-87.093 77.366-113.475 6.568-7.163 17.183-8.919 25.734-4.299l7.858 4.245c-2.35-1.269-7.533 3.42-12.58 11.405-18.608 29.384-42.915 71.252-68.352 118.344-50.164 92.873-85.742 170.924-79.454 174.321z" fill="#528ecb" data-original="#528ecb"></path><path d="m388.617 251.127c-2.885 4.42-5.759 8.715-8.633 12.898l-76.048-41.073c1.916-4.687 3.946-9.457 6.068-14.289z" fill="#dfeaef" data-original="#dfeaef"></path></g></g></g></svg>